<?xml version="1.0" standalone="no"?><!DOCTYPE svg PUBLIC "-//W3C//DTD SVG 1.1//EN" "http://www.w3.org/Graphics/SVG/1.1/DTD/svg11.dtd"><svg t="1632212171161" class="icon" viewBox="0 0 1024 1024" version="1.1" xmlns="http://www.w3.org/2000/svg" p-id="2408" data-darkreader-inline-fill="" xmlns:xlink="http://www.w3.org/1999/xlink" width="200" height="200"><defs><style type="text/css"></style></defs><path d="M648.533333 938.666667c-136.533333 0-256-93.866667-290.133333-221.866667-4.266667-12.8 0-29.866667 8.533333-38.4 72.533333-76.8 170.666667-119.466667 277.333334-119.466667s204.8 42.666667 277.333333 119.466667c8.533333 8.533333 12.8 25.6 8.533333 38.4-25.6 128-145.066667 221.866667-281.6 221.866667z m-200.533333-221.866667c29.866667 81.066667 110.933333 136.533333 200.533333 136.533333s166.4-55.466667 200.533334-136.533333C793.6 665.6 725.333333 640 648.533333 640s-145.066667 25.6-200.533333 76.8z m200.533333-183.466667c-119.466667 0-213.333333-93.866667-213.333333-213.333333s93.866667-213.333333 213.333333-213.333333 213.333333 93.866667 213.333334 213.333333-98.133333 213.333333-213.333334 213.333333z m0-341.333333c-72.533333 0-128 55.466667-128 128s55.466667 128 128 128 128-55.466667 128-128-59.733333-128-128-128z" p-id="2409"></path><path d="M392.533333 490.666667c-93.866667 0-170.666667-76.8-170.666666-170.666667s76.8-170.666667 170.666666-170.666667 170.666667 76.8 170.666667 170.666667-76.8 170.666667-170.666667 170.666667z m0 405.333333c-119.466667 0-217.6-81.066667-247.466666-192C204.8 640 294.4 597.333333 392.533333 597.333333s187.733333 42.666667 247.466667 106.666667c-29.866667 110.933333-128 192-247.466667 192z" p-id="2410"></path><path d="M392.533333 938.666667c-136.533333 0-256-93.866667-290.133333-221.866667-4.266667-12.8 0-29.866667 8.533333-38.4C187.733333 597.333333 285.866667 554.666667 392.533333 554.666667s204.8 42.666667 277.333334 119.466666c8.533333 8.533333 12.8 25.6 8.533333 38.4-29.866667 132.266667-149.333333 226.133333-285.866667 226.133334z m-200.533333-221.866667c29.866667 81.066667 110.933333 136.533333 200.533333 136.533333s166.4-55.466667 200.533334-136.533333c-55.466667-51.2-128-76.8-200.533334-76.8s-145.066667 25.6-200.533333 76.8z m200.533333-183.466667c-119.466667 0-213.333333-93.866667-213.333333-213.333333s93.866667-213.333333 213.333333-213.333333 213.333333 93.866667 213.333334 213.333333-98.133333 213.333333-213.333334 213.333333z m0-341.333333c-72.533333 0-128 55.466667-128 128s55.466667 128 128 128 128-55.466667 128-128-59.733333-128-128-128z" p-id="2411"></path></svg>